<svg xmlns="http://www.w3.org/2000/svg" viewBox="0 0 595.276 595.276" role="img" aria-label="Embaixada Carioca">
<g transform="matrix(1 0 0 -1 0 595.276)">
<g>
<g transform="matrix(1 0 0 1 86.6604 338.1198)">
<path d="M 0 0 L -45.881 11.987 L -38.83 38.975 L -31.6 38.506 L -36.758 18.765 L -24.411 15.538 L -20.556 30.294 L -13.241 29.875 L -17.461 13.723 L -4.574 10.355 L 1.088 32.025 L 8.267 31.641 Z" fill="#236233"/>
</g>
</g>
<g>
<g transform="matrix(1 0 0 1 100.7165 414.0178)">
<path d="M 0 0 L -18.248 -2.201 L 6.647 -16.958 L 2.128 -24.583 L -38.664 -0.401 L -35.792 4.444 L -8.897 6.872 L -20.412 30.389 L -17.645 35.058 L 23.148 10.876 L 18.559 3.135 L -4.957 17.074 L 1.332 3.203 Z" fill="#236233"/>
</g>
</g>
<g>
<g>
<g transform="matrix(1 0 0 1 140.2732 472.5925)">
<path d="M 0 0 L -7.497 -6.97 L 1.572 -16.725 L 8.616 -10.176 C 10.394 -8.523 11.423 -6.805 11.704 -5.021 C 11.983 -3.238 11.428 -1.597 10.034 -0.098 C 8.546 1.502 6.914 2.301 5.134 2.297 C 3.355 2.293 1.643 1.528 0 0 M -14.671 12.45 L -20.508 7.024 L -12.483 -1.607 L -7.653 2.883 C -5.741 4.661 -4.554 6.445 -4.095 8.238 C -3.635 10.03 -4.07 11.642 -5.399 13.072 C -6.855 14.638 -8.329 15.331 -9.819 15.152 C -11.31 14.972 -12.928 14.072 -14.671 12.45 M 14.2 -15.173 L 0.162 -28.225 L -32.127 6.505 L -18.843 18.855 C -15.321 22.13 -11.843 23.903 -8.407 24.178 C -4.972 24.451 -1.703 22.919 1.399 19.583 C 3.425 17.404 4.116 14.205 3.471 9.988 C 8.735 11.39 13.17 10.15 16.779 6.269 C 19.723 3.102 20.952 -0.407 20.465 -4.255 C 19.978 -8.104 17.89 -11.743 14.2 -15.173" fill="#236233"/>
</g>
</g>
<g>
<g transform="matrix(1 0 0 1 183.1555 519.4587)">
<path d="M 0 0 L 2.15 -17.491 L 13.139 -11.816 Z M -2.155 12.858 L 35.463 -20.459 L 28.103 -25.672 L 18.94 -17.061 L 3.19 -25.195 L 4.647 -37 L -3.288 -41.098 L -8.87 9.39 Z" fill="#236233"/>
</g>
</g>
<g>
<g transform="matrix(1 0 0 1 239.2038 504.2131)">
<path d="M 0 0 L -12.216 45.82 L -3.652 48.103 L 8.563 2.283 Z" fill="#236233"/>
</g>
</g>
<g>
<g transform="matrix(1 0 0 1 268.4831 511.4358)">
<path d="M 0 0 L 15.372 24.627 L -1.018 45.743 L 6.616 49.122 L 20.423 30.694 L 31.18 48.715 L 40.446 49.088 L 25.135 24.672 L 41.463 1.67 L 32.127 1.293 L 20.149 18.678 L 9.13 0.367 Z" fill="#236233"/>
</g>
</g>
<g>
<g transform="matrix(1 0 0 1 355.5114 540.7722)">
<path d="M 0 0 L -9.771 -14.666 L 2.26 -17.525 Z M 6.748 11.155 L 13.556 -38.632 L 4.576 -37.788 L 3.241 -25.285 L -14.004 -21.186 L -20.596 -31.088 L -29.284 -29.022 L -0.605 12.903 Z" fill="#236233"/>
</g>
</g>
<g>
<g transform="matrix(1 0 0 1 423.0847 519.3464)">
<path d="M 0 0 L -8.021 4.518 L -23.798 -23.494 L -16.195 -27.776 C -12.764 -29.708 -9.455 -30.064 -6.27 -28.843 C -3.087 -27.623 -0.102 -24.541 2.682 -19.599 C 5.169 -15.184 6.221 -11.307 5.84 -7.972 C 5.459 -4.634 3.511 -1.978 0 0 M -19.806 -34.466 L -35.25 -25.768 L -11.979 15.55 L 3.466 6.853 C 7.575 4.538 10.552 1.726 12.396 -1.58 C 14.24 -4.886 14.989 -8.456 14.645 -12.29 C 14.298 -16.124 12.984 -20.066 10.703 -24.116 C 7.03 -30.639 2.534 -34.817 -2.782 -36.65 C -8.101 -38.485 -13.774 -37.757 -19.806 -34.466" fill="#236233"/>
</g>
</g>
<g>
<g transform="matrix(1 0 0 1 475.9148 473.0759)">
<path d="M 0 0 L -16.06 -7.255 L -7.374 -16.058 Z M 11.635 5.882 L -8.986 -39.943 L -16.153 -34.467 L -10.656 -23.157 L -23.105 -10.539 L -33.943 -15.441 L -40.216 -9.083 L 6.327 11.261 Z" fill="#236233"/>
</g>
</g>
<g>
<g transform="matrix(1 0 0 1 35.5739 215.7629)">
<path d="M 0 0 C -1.237 4.959 -1.613 10.11 -1.121 15.455 C -0.628 20.8 0.77 25.819 3.087 30.513 C 5.398 35.204 8.656 39.368 12.854 43.004 C 17.049 46.646 22.2 49.228 28.304 50.751 C 35.552 52.561 42.168 52.438 48.145 50.396 C 54.126 48.354 59.003 44.963 62.78 40.23 L 57.469 34.71 C 55.496 37.093 53.345 38.983 51.013 40.375 C 48.676 41.766 46.297 42.778 43.874 43.407 C 41.444 44.035 39.028 44.315 36.615 44.247 C 34.201 44.178 31.887 43.87 29.673 43.317 C 24.787 42.098 20.728 40.018 17.495 37.069 C 14.256 34.121 11.768 30.705 10.024 26.815 C 8.276 22.925 7.269 18.783 6.984 14.396 C 6.701 10.005 7.081 5.721 8.125 1.534 C 9.266 -3.035 11.139 -7.21 13.748 -11.007 C 16.356 -14.797 19.412 -17.959 22.928 -20.496 C 26.434 -23.035 30.275 -24.791 34.452 -25.762 C 38.625 -26.74 42.885 -26.682 47.238 -25.595 C 49.526 -25.023 51.796 -24.153 54.056 -22.969 C 56.316 -21.785 58.41 -20.275 60.343 -18.438 C 62.269 -16.598 63.955 -14.496 65.391 -12.117 C 66.823 -9.746 67.85 -7.045 68.472 -4.009 L 75.978 -5.837 C 75.452 -9.256 74.303 -12.446 72.529 -15.396 C 70.75 -18.349 68.619 -20.998 66.124 -23.348 C 63.629 -25.698 60.869 -27.707 57.84 -29.364 C 54.812 -31.026 51.73 -32.249 48.602 -33.03 C 43.035 -34.42 37.612 -34.459 32.342 -33.141 C 27.067 -31.823 22.259 -29.592 17.904 -26.438 C 13.551 -23.29 9.808 -19.41 6.674 -14.804 C 3.541 -10.203 1.314 -5.267 0 0" fill="#236233"/>
</g>
</g>
<g>
<g transform="matrix(1 0 0 1 172.2463 239.4992)">
<path d="M 0 0 L -26.54 36.688 L -32.958 -8.227 Z M -32.232 45.385 L -25.484 47.069 L 28.86 -26.98 L 20.393 -29.094 L 3.425 -5.934 L -33.076 -15.045 L -37.055 -43.433 L -45.639 -45.576 Z" fill="#236233"/>
</g>
</g>
<g>
<g transform="matrix(1 0 0 1 224.1638 262.55)">
<path d="M 0 0 L 19.797 4.941 C 21.244 5.303 22.515 5.987 23.597 6.997 C 24.685 8.009 25.532 9.23 26.148 10.658 C 26.765 12.086 27.136 13.682 27.267 15.442 C 27.394 17.201 27.225 19.013 26.761 20.87 C 26.277 22.805 25.529 24.512 24.512 25.984 C 23.494 27.458 22.326 28.67 20.995 29.611 C 19.663 30.553 18.25 31.187 16.75 31.513 C 15.249 31.838 13.815 31.83 12.442 31.487 L -6.668 26.718 Z M -5.388 -45.646 L -25.971 36.831 L 9.967 45.801 C 13.703 46.733 17.355 46.802 20.918 46.004 C 24.476 45.205 27.727 43.795 30.662 41.774 C 33.6 39.747 36.126 37.256 38.247 34.285 C 40.361 31.317 41.837 28.169 42.667 24.841 C 44 19.498 43.899 14.309 42.362 9.277 C 40.82 4.244 38.042 0.199 34.022 -2.858 L 60.304 -29.248 L 42.561 -33.677 L 19.068 -10.172 L 3.507 -14.056 L 10.407 -41.703 Z" fill="#236233"/>
</g>
</g>
<g>
<g transform="matrix(1 0 0 1 302.9704 238.4289)">
<path d="M 0 0 L -20.583 82.476 L -4.788 86.419 L 15.795 3.942 Z" fill="#236233"/>
</g>
</g>
<g>
<g transform="matrix(1 0 0 1 342.2331 292.0207)">
<path d="M 0 0 C 0.891 -3.565 2.282 -6.879 4.183 -9.939 C 6.083 -13 8.36 -15.559 11.021 -17.609 C 13.681 -19.659 16.673 -21.093 19.997 -21.91 C 23.321 -22.728 26.852 -22.667 30.593 -21.733 C 34.402 -20.782 37.584 -19.145 40.125 -16.823 C 42.662 -14.509 44.615 -11.777 45.979 -8.637 C 47.346 -5.501 48.134 -2.159 48.344 1.394 C 48.55 4.939 48.23 8.417 47.38 11.826 C 46.491 15.386 45.078 18.694 43.14 21.751 C 41.202 24.802 38.902 27.356 36.243 29.406 C 33.583 31.457 30.596 32.869 27.286 33.649 C 23.971 34.429 20.484 34.356 16.823 33.442 C 13.002 32.488 9.811 30.848 7.23 28.522 C 4.651 26.192 2.695 23.477 1.357 20.389 C 0.019 17.3 -0.752 13.98 -0.964 10.433 C -1.17 6.887 -0.851 3.408 0 0 M 34.013 -35.937 C 28.062 -37.422 22.366 -37.587 16.935 -36.436 C 11.502 -35.284 6.558 -33.184 2.111 -30.139 C -2.334 -27.094 -6.144 -23.294 -9.305 -18.734 C -12.467 -14.176 -14.704 -9.266 -16.018 -3.998 C -17.391 1.501 -17.697 7.013 -16.932 12.553 C -16.166 18.092 -14.488 23.239 -11.91 27.997 C -9.327 32.756 -5.881 36.887 -1.571 40.391 C 2.744 43.895 7.76 46.358 13.486 47.787 C 19.355 49.252 25.019 49.375 30.476 48.143 C 35.928 46.91 40.865 44.751 45.283 41.659 C 49.701 38.567 53.494 34.739 56.655 30.18 C 59.817 25.622 62.051 20.75 63.345 15.564 C 64.717 10.065 65.03 4.572 64.298 -0.919 C 63.56 -6.411 61.915 -11.511 59.364 -16.216 C 56.809 -20.928 53.373 -25.033 49.063 -28.536 C 44.748 -32.041 39.733 -34.509 34.013 -35.937" fill="#236233"/>
</g>
</g>
<g>
<g transform="matrix(1 0 0 1 415.2673 310.9602)">
<path d="M 0 0 C -1.238 4.959 -1.613 10.11 -1.121 15.455 C -0.629 20.8 0.77 25.82 3.087 30.513 C 5.398 35.204 8.655 39.369 12.853 43.004 C 17.049 46.646 22.199 49.228 28.304 50.751 C 35.552 52.561 42.168 52.439 48.145 50.396 C 54.126 48.354 59.003 44.963 62.779 40.231 L 57.469 34.71 C 55.495 37.093 53.345 38.983 51.013 40.375 C 48.676 41.766 46.297 42.779 43.873 43.408 C 41.444 44.035 39.028 44.316 36.614 44.247 C 34.2 44.178 31.886 43.87 29.672 43.317 C 24.787 42.098 20.728 40.018 17.494 37.07 C 14.256 34.121 11.767 30.706 10.024 26.816 C 8.276 22.925 7.269 18.783 6.984 14.396 C 6.701 10.005 7.08 5.721 8.125 1.535 C 9.266 -3.035 11.138 -7.21 13.747 -11.006 C 16.355 -14.797 19.412 -17.959 22.928 -20.495 C 26.434 -23.035 30.274 -24.79 34.452 -25.762 C 38.625 -26.74 42.884 -26.682 47.237 -25.595 C 49.525 -25.023 51.796 -24.152 54.056 -22.969 C 56.315 -21.785 58.409 -20.275 60.342 -18.438 C 62.269 -16.598 63.954 -14.496 65.391 -12.117 C 66.822 -9.746 67.85 -7.044 68.472 -4.009 L 75.978 -5.836 C 75.451 -9.256 74.303 -12.446 72.529 -15.396 C 70.75 -18.349 68.618 -20.998 66.124 -23.348 C 63.629 -25.698 60.869 -27.707 57.84 -29.363 C 54.812 -31.026 51.73 -32.249 48.601 -33.029 C 43.034 -34.419 37.611 -34.459 32.342 -33.141 C 27.066 -31.823 22.258 -29.592 17.904 -26.437 C 13.551 -23.289 9.807 -19.409 6.673 -14.804 C 3.541 -10.203 1.314 -5.267 0 0" fill="#236233"/>
</g>
</g>
<g>
<g transform="matrix(1 0 0 1 547.1257 333.4968)">
<path d="M 0 0 L -26.539 36.688 L -32.957 -8.227 Z M -32.231 45.385 L -25.483 47.069 L 28.86 -26.98 L 20.394 -29.094 L 3.426 -5.934 L -33.076 -15.045 L -37.055 -43.433 L -45.639 -45.576 Z" fill="#236233"/>
</g>
</g>
<g>
<g transform="matrix(1 0 0 1 577.2839 278.7785)">
<path d="M 0 0 C -2.31 -0.577 -3.978 -2.565 -4.189 -4.942 C -14.401 -119.184 -95.267 -219.784 -212.384 -249.018 C -329.502 -278.251 -448.15 -227.449 -510.841 -131.406 C -512.146 -129.407 -514.552 -128.436 -516.862 -129.012 C -520.565 -129.937 -522.272 -134.254 -520.181 -137.458 C -454.985 -237.378 -331.525 -290.204 -209.694 -259.795 C -87.863 -229.385 -3.704 -124.735 6.898 -5.896 C 7.238 -2.085 3.704 0.924 0 0" fill="#236233"/>
</g>
</g>
<g>
<g transform="matrix(1 0 0 1 18.0246 285.176)">
<path d="M 0 0 C 2.521 0.629 4.239 2.937 4.178 5.542 C 1.196 132.083 85.718 248.548 213.164 280.36 C 340.61 312.171 469.94 249.085 526.764 135.983 C 527.934 133.653 530.535 132.425 533.056 133.054 C 536.487 133.91 538.25 137.742 536.66 140.912 C 477.573 258.581 343.051 324.222 210.476 291.13 C 77.9 258.039 -10.003 136.879 -6.873 5.242 C -6.789 1.696 -3.431 -0.856 0 0" fill="#236233"/>
</g>
</g>
<g>
<g transform="matrix(1 0 0 1 100.3899 306.0324)">
<path d="M 0 0 C 1.17 0.292 2.003 1.316 2.072 2.524 C 6.817 86.185 64.956 160.749 150.137 182.01 C 235.318 203.272 321.673 164.774 365.169 93.156 C 365.797 92.121 367.014 91.609 368.184 91.901 C 369.978 92.349 370.845 94.417 369.882 96.003 C 325.166 169.653 236.385 209.252 148.794 187.389 C 61.205 165.526 1.442 88.85 -3.427 2.823 C -3.531 0.971 -1.794 -0.448 0 0" fill="#236233"/>
</g>
</g>
<g>
<g transform="matrix(1 0 0 1 490.3718 256.3869)">
<path d="M 0 0 C -1.015 -0.254 -1.792 -1.061 -2.022 -2.083 C -17.829 -72.232 -71.542 -131.167 -145.765 -149.693 C -219.987 -168.22 -295.091 -141.438 -342.004 -86.944 C -342.688 -86.149 -343.753 -85.804 -344.768 -86.057 C -346.782 -86.56 -347.54 -89.015 -346.182 -90.592 C -297.945 -146.605 -220.727 -174.118 -144.422 -155.072 C -68.118 -136.026 -12.882 -75.452 3.38 -3.339 C 3.838 -1.309 2.015 0.502 0 0" fill="#236233"/>
</g>
</g>
<g>
<g transform="matrix(1 0 0 1 253.6521 198.7316)">
<path d="M 0 0 C 0.592 1.055 1.287 2.277 2.036 3.57 C -0.704 1.542 -3.229 -1.108 -5.136 -3.354 C -6.747 -6.047 -8.718 -9.106 -11.073 -12.302 C -12.636 -15.235 -14.657 -19.2 -16.724 -23.383 C -8.369 -14.862 -2.909 -5.205 0 0" fill="#236233"/>
</g>
</g>
<g>
<g transform="matrix(1 0 0 1 235.1911 162.1008)">
<path d="M 0 0 C 12.454 9.495 20.068 23.119 23.727 29.665 C 25.604 33.01 28.279 37.73 31.814 42.732 C 30.838 43.063 29.826 43.275 28.79 43.329 C 25.743 38.853 23.372 34.688 21.668 31.653 C 18.047 25.175 10.511 11.691 -1.764 2.333 C -2.614 1.685 -3.48 1.069 -4.354 0.474 C -5.163 -1.309 -5.864 -2.912 -6.436 -4.289 C -4.249 -3.005 -2.086 -1.59 0 0" fill="#236233"/>
</g>
</g>
<g>
<g transform="matrix(1 0 0 1 141.9753 128.2014)">
<path d="M 0 0 L -3.787 3.475 L -9.77 -3.046 L -6.592 -5.963 C -5.106 -7.284 -3.682 -8.086 -2.32 -8.365 C -0.958 -8.646 0.238 -8.226 1.266 -7.104 C 2.379 -5.892 2.796 -4.725 2.516 -3.604 C 2.236 -2.483 1.398 -1.281 0 0 M -7.666 -10.729 L -12.636 -6.169 L -19.312 -13.445 L -14.68 -17.695 C -13.282 -18.977 -11.905 -19.703 -10.546 -19.876 C -9.188 -20.047 -7.974 -19.55 -6.903 -18.383 C -5.769 -17.147 -5.287 -15.862 -5.453 -14.529 C -5.622 -13.195 -6.358 -11.929 -7.666 -10.729 M -17.372 -21.104 L -26.027 -13.161 L -4.613 10.176 L 3.434 2.791 C 5.845 0.579 7.266 -1.662 7.696 -3.932 C 8.125 -6.201 7.312 -8.458 5.254 -10.699 C 3.805 -12.277 1.581 -12.892 -1.419 -12.542 C -0.729 -14.187 -0.48 -15.806 -0.674 -17.397 C -0.869 -18.989 -1.617 -20.494 -2.918 -21.912 C -4.913 -24.087 -7.194 -25.069 -9.764 -24.86 C -12.334 -24.651 -14.87 -23.399 -17.372 -21.104" fill="#236233"/>
</g>
</g>
<g>
<g transform="matrix(1 0 0 1 164.1828 106.9006)">
<path d="M 0 0 L -10.783 -7.53 L -3.216 -12.803 Z M 6.032 4.483 L -2.023 -28.108 L -6.628 -25.809 L -4.358 -17.173 L -14.411 -10.169 L -21.412 -14.999 L -25.591 -12.087 L 2.305 7.08 Z" fill="#236233"/>
</g>
</g>
<g>
<g transform="matrix(1 0 0 1 191.5276 93.5686)">
<path d="M 0 0 L -3.632 1.866 L -8.508 -7.62 L -4.958 -9.445 C -3.136 -10.382 -1.475 -10.765 0.024 -10.592 C 1.523 -10.42 2.691 -9.521 3.529 -7.89 C 4.409 -6.178 4.524 -4.684 3.873 -3.406 C 3.223 -2.129 1.931 -0.993 0 0 M -6.202 8.11 L 2.083 3.851 C 5.267 2.216 7.485 0.176 8.741 -2.268 C 9.995 -4.711 9.899 -7.342 8.451 -10.159 C 7.557 -11.897 6.348 -13.18 4.824 -14.003 C 3.3 -14.825 1.647 -15.196 -0.136 -15.119 L 0.459 -30.927 L -4.479 -28.388 L -4.812 -14.182 C -5.4 -13.983 -6.169 -13.642 -7.122 -13.151 L -10.468 -11.431 L -16.111 -22.409 L -20.681 -20.06 Z" fill="#236233"/>
</g>
</g>
<g>
<g transform="matrix(1 0 0 1 226.9655 77.2531)">
<path d="M 0 0 C -0.085 -0.298 -0.125 -0.602 -0.117 -0.911 C -0.111 -1.221 -0.048 -1.585 0.071 -2.006 C 0.188 -2.427 0.382 -2.918 0.651 -3.48 C 0.92 -4.041 1.254 -4.735 1.655 -5.56 C 3.255 -5.081 4.559 -4.558 5.564 -3.99 C 6.569 -3.421 7.21 -2.66 7.483 -1.704 C 7.757 -0.749 7.646 0.114 7.15 0.887 C 6.654 1.658 5.893 2.19 4.863 2.485 C 3.745 2.805 2.726 2.717 1.805 2.221 C 0.882 1.727 0.282 0.986 0 0 M -1.914 -22.707 C -0.827 -23.018 0.285 -23.109 1.42 -22.982 C 2.554 -22.854 3.658 -22.524 4.733 -21.992 L -0.886 -10.938 C -2.34 -11.458 -3.571 -12.091 -4.579 -12.836 C -5.588 -13.581 -6.263 -14.551 -6.604 -15.745 C -6.827 -16.521 -6.868 -17.275 -6.728 -18.011 C -6.588 -18.745 -6.295 -19.418 -5.85 -20.03 C -5.404 -20.643 -4.851 -21.181 -4.187 -21.645 C -3.525 -22.108 -2.768 -22.463 -1.914 -22.707 M 8.525 -29.424 L 6.529 -25.558 C 4.91 -26.323 3.244 -26.782 1.529 -26.937 C -0.186 -27.092 -1.882 -26.931 -3.558 -26.451 C -5.087 -26.014 -6.417 -25.374 -7.544 -24.535 C -8.673 -23.696 -9.576 -22.735 -10.252 -21.653 C -10.929 -20.572 -11.357 -19.399 -11.537 -18.138 C -11.717 -16.874 -11.627 -15.616 -11.268 -14.362 C -10.978 -13.347 -10.555 -12.451 -9.998 -11.673 C -9.441 -10.896 -8.792 -10.21 -8.048 -9.615 C -7.306 -9.021 -6.491 -8.511 -5.606 -8.084 C -4.721 -7.66 -3.82 -7.288 -2.901 -6.969 C -3.364 -6.03 -3.734 -5.181 -4.01 -4.424 C -4.287 -3.666 -4.486 -2.972 -4.607 -2.339 C -4.729 -1.707 -4.781 -1.11 -4.764 -0.55 C -4.747 0.01 -4.657 0.573 -4.495 1.142 C -4.187 2.217 -3.69 3.146 -3.003 3.937 C -2.316 4.725 -1.511 5.342 -0.587 5.788 C 0.335 6.234 1.356 6.491 2.473 6.56 C 3.59 6.629 4.737 6.494 5.914 6.157 C 6.973 5.854 7.944 5.415 8.83 4.839 C 9.715 4.263 10.443 3.585 11.017 2.808 C 11.59 2.029 11.968 1.154 12.15 0.183 C 12.334 -0.791 12.272 -1.814 11.965 -2.89 C 11.708 -3.784 11.318 -4.562 10.797 -5.221 C 10.274 -5.878 9.652 -6.467 8.931 -6.987 C 8.209 -7.508 7.4 -7.971 6.505 -8.376 C 5.609 -8.783 4.667 -9.151 3.683 -9.482 L 8.589 -19.025 C 9.388 -18.124 10.1 -17.108 10.726 -15.979 C 11.351 -14.85 11.859 -13.599 12.253 -12.226 L 16.224 -13.361 C 15.612 -15.383 14.826 -17.185 13.865 -18.767 C 12.904 -20.35 11.8 -21.704 10.555 -22.834 L 14.923 -31.253 Z" fill="#236233"/>
</g>
</g>
<g>
<g transform="matrix(1 0 0 1 277.5954 68.6125)">
<path d="M 0 0 L -4.07 0.33 L -4.932 -10.302 L -0.952 -10.624 C 1.091 -10.788 2.771 -10.505 4.089 -9.77 C 5.407 -9.036 6.14 -7.756 6.287 -5.929 C 6.443 -4.011 5.975 -2.586 4.885 -1.657 C 3.793 -0.727 2.165 -0.174 0 0 M -8.84 5.108 L 0.445 4.357 C 4.013 4.067 6.845 3.037 8.941 1.263 C 11.038 -0.513 11.959 -2.977 11.704 -6.135 C 11.546 -8.085 10.921 -9.732 9.83 -11.076 C 8.738 -12.421 7.355 -13.398 5.68 -14.011 L 12.296 -28.379 L 6.762 -27.931 L 1 -14.94 C 0.383 -14.984 -0.46 -14.962 -1.526 -14.876 L -5.277 -14.572 L -6.273 -26.876 L -11.396 -26.461 Z" fill="#236233"/>
</g>
</g>
<g>
<g transform="matrix(1 0 0 1 299.9568 40.3732)">
<path d="M 0 0 L -1.488 31.639 L 16.571 32.488 L 17.498 28.429 L 3.839 27.785 L 4.283 18.34 L 14.643 18.828 L 15.614 14.771 L 4.476 14.246 L 4.941 4.337 L 19.793 5.034 L 20.765 0.977 Z" fill="#236233"/>
</g>
</g>
<g>
<g transform="matrix(1 0 0 1 328.9011 44.2746)">
<path d="M 0 0 L 0.445 4.323 C 1.557 3.973 2.858 3.702 4.348 3.509 C 5.837 3.315 7.2 3.321 8.438 3.528 C 10.43 3.858 11.896 4.456 12.839 5.321 C 13.779 6.186 14.147 7.246 13.938 8.502 C 13.806 9.299 13.398 9.978 12.716 10.541 C 12.032 11.104 11.202 11.573 10.226 11.945 C 9.249 12.319 7.845 12.793 6.013 13.37 C 2.931 14.369 0.553 15.477 -1.122 16.694 C -2.798 17.91 -3.815 19.606 -4.177 21.782 C -4.437 23.344 -4.255 24.814 -3.631 26.193 C -3.007 27.571 -1.978 28.749 -0.543 29.728 C 0.891 30.706 2.664 31.37 4.777 31.722 C 6.195 31.957 7.67 31.99 9.203 31.819 C 10.735 31.649 12.188 31.347 13.563 30.915 L 12.522 26.54 C 11.284 26.9 10.149 27.152 9.118 27.296 C 8.086 27.439 6.951 27.408 5.715 27.203 C 4.145 26.942 2.913 26.422 2.02 25.645 C 1.125 24.865 0.777 23.88 0.976 22.686 C 1.118 21.827 1.508 21.113 2.146 20.542 C 2.783 19.971 3.574 19.505 4.518 19.143 C 5.463 18.779 6.934 18.276 8.933 17.633 C 11.031 16.942 12.729 16.288 14.026 15.67 C 15.322 15.052 16.437 14.229 17.367 13.203 C 18.297 12.177 18.89 10.898 19.144 9.367 C 19.419 7.712 19.226 6.17 18.563 4.738 C 17.902 3.307 16.779 2.087 15.193 1.085 C 13.608 0.082 11.623 -0.618 9.24 -1.015 C 7.941 -1.229 6.298 -1.227 4.308 -1.008 C 2.317 -0.787 0.881 -0.451 0 0" fill="#236233"/>
</g>
</g>
<g>
<g transform="matrix(1 0 0 1 373.2751 80.7775)">
<path d="M 0 0 L -10.268 -2.977 L -2.604 -29.416 L -7.63 -30.872 L -15.293 -4.433 L -24.725 -7.167 L -25.879 -3.186 L -1.903 3.765 Z" fill="#236233"/>
</g>
</g>
<g>
<g transform="matrix(1 0 0 1 390.1755 84.6076)">
<path d="M 0 0 L 0.789 -13.13 L 9.238 -9.431 Z M -0.673 7.484 L 22.913 -16.409 L 18.546 -19.135 L 12.368 -12.688 L 1.144 -17.602 L 1.605 -26.095 L -3.06 -28.137 L -4.834 5.662 Z" fill="#236233"/>
</g>
</g>
<g>
<g transform="matrix(1 0 0 1 409.614 102.2648)">
<path d="M 0 0 L 10.479 -16.85 C 11.839 -19.038 13.447 -20.378 15.303 -20.87 C 17.157 -21.362 19.033 -21.019 20.931 -19.839 C 22.825 -18.66 23.961 -17.124 24.331 -15.229 C 24.701 -13.334 24.215 -11.306 22.869 -9.144 L 12.391 7.706 L 16.796 10.444 L 27.495 -6.761 C 28.691 -8.687 29.335 -10.691 29.424 -12.773 C 29.513 -14.857 29.029 -16.832 27.973 -18.695 C 26.916 -20.56 25.322 -22.153 23.193 -23.479 C 21.062 -24.803 18.928 -25.527 16.789 -25.651 C 14.65 -25.773 12.666 -25.334 10.837 -24.333 C 9.007 -23.333 7.494 -21.868 6.297 -19.944 L -4.403 -2.737 Z" fill="#236233"/>
</g>
</g>
<g>
<g transform="matrix(1 0 0 1 443.4529 120.677)">
<path d="M 0 0 L -3.131 -2.624 L 3.722 -10.799 L 6.78 -8.234 C 8.353 -6.919 9.349 -5.536 9.771 -4.087 C 10.194 -2.639 9.817 -1.214 8.641 0.191 C 7.404 1.667 6.071 2.353 4.641 2.249 C 3.212 2.144 1.664 1.395 0 0 M -9.882 -2.57 L -2.742 3.414 C 0.002 5.714 2.741 6.967 5.48 7.176 C 8.22 7.384 10.606 6.276 12.641 3.849 C 13.897 2.349 14.609 0.736 14.777 -0.986 C 14.943 -2.71 14.645 -4.378 13.882 -5.99 L 28.681 -11.576 L 24.426 -15.143 L 11.203 -9.938 C 10.793 -10.402 10.179 -10.979 9.357 -11.666 L 6.474 -14.083 L 14.403 -23.542 L 10.464 -26.845 Z" fill="#236233"/>
</g>
</g>
<g>
<g transform="matrix(1 0 0 1 468.2634 140.5969)">
<path d="M 0 0 L 6.068 -11.67 L 12.277 -4.849 Z M -3.663 6.562 L 27.61 -5.652 L 24.731 -9.921 L 16.463 -6.549 L 8.214 -15.608 L 12.095 -23.176 L 8.666 -26.942 L -6.723 3.203 Z" fill="#236233"/>
</g>
</g>
<g>
<g transform="matrix(1 0 0 1 502.4499 142.9719)">
<path d="M 0 0 L -26.252 17.72 L -23.53 21.752 L 3.537 21.972 L -14.956 34.455 L -12.054 38.753 L 14.198 21.032 L 11.451 16.962 L -15.733 16.82 L 2.876 4.259 Z" fill="#236233"/>
</g>
</g>
<g>
<g transform="matrix(1 0 0 1 508.3904 208.1135)">
<path d="M 0 0 L -4.699 -9.604 L 20.028 -21.701 L 17.729 -26.4 L -6.998 -14.302 L -11.314 -23.123 L -15.038 -21.302 L -4.066 1.121 Z" fill="#236233"/>
</g>
</g>
<g>
<g transform="matrix(1 0 0 1 536.7048 205.298)">
<path d="M 0 0 L -29.942 10.328 L -24.047 27.42 L -19.933 26.777 L -24.391 13.85 L -15.452 10.767 L -12.071 20.57 L -7.941 19.972 L -11.579 9.431 L -2.199 6.195 L 2.648 20.25 L 6.777 19.65 Z" fill="#236233"/>
</g>
</g>
<g>
<g transform="matrix(1 0 0 1 341.6999 452.4289)">
<path d="M 0 0 C 7.065 5.963 12.33 13.305 16.161 19.702 C 15.251 20.02 14.344 20.342 13.428 20.646 C 9.7 14.58 4.717 7.814 -1.855 2.268 C -6.192 -1.393 -10.931 -4.281 -15.536 -6.575 C -14.979 -7.334 -14.436 -8.131 -13.906 -8.989 C -9.231 -6.661 -4.415 -3.726 0 0" fill="#236233"/>
</g>
</g>
<g>
<g transform="matrix(1 0 0 1 294.8777 432.1911)">
<path d="M 0 0 C 1.217 1.115 2.375 2.394 3.501 3.741 C 0.829 2.825 -2.062 1.719 -5.073 0.382 C -4.536 -0.991 -4.073 -1.895 -3.201 -1.92 C -2.586 -1.649 -1.98 -1.383 -1.375 -1.132 C -0.968 -0.836 -0.525 -0.482 0 0" fill="#236233"/>
</g>
</g>
<g>
<g transform="matrix(1 0 0 1 227.0251 468.0803)">
<path d="M 0 0 C -2.11 -0.887 -4.194 -1.814 -6.258 -2.774 C -12.563 -10.677 -16.738 -19.001 -19.305 -24.181 C -22.58 -30.821 -29.395 -44.638 -41.093 -54.511 C -52.792 -64.385 -67.414 -68.66 -74.442 -70.715 C -77.414 -71.59 -81.375 -72.765 -85.774 -74.42 C -86.566 -75.729 -87.324 -77.057 -88.083 -78.385 C -82.34 -75.959 -76.996 -74.375 -72.982 -73.192 C -65.882 -71.117 -51.107 -66.797 -39.238 -56.779 C -27.368 -46.761 -20.482 -32.8 -17.174 -26.091 C -14.089 -19.868 -8.7 -9.052 0 0" fill="#236233"/>
</g>
</g>
<g>
<g transform="matrix(1 0 0 1 271.4431 480.4367)">
<path d="M 0 0 C -5.939 -0.872 -11.889 -2.006 -17.833 -3.49 C -18.143 -3.567 -18.443 -3.661 -18.753 -3.74 C -24.216 -6.222 -29.946 -9.447 -35.133 -13.824 C -46.751 -23.629 -53.507 -37.261 -57.137 -44.586 C -60.412 -51.227 -67.227 -65.044 -78.925 -74.917 C -90.624 -84.791 -105.246 -89.065 -112.273 -91.121 C -118.399 -92.924 -128.683 -96.005 -138.464 -102.034 C -139.287 -103.729 -140.098 -105.432 -140.871 -107.154 C -130.184 -99.352 -118.242 -95.786 -110.814 -93.598 C -103.713 -91.522 -88.939 -87.202 -77.069 -77.185 C -65.2 -67.167 -58.314 -53.206 -55.006 -46.497 C -51.413 -39.248 -44.725 -25.753 -33.277 -16.091 C -21.888 -6.479 -7.703 -2.269 0 0" fill="#236233"/>
</g>
</g>
<g>
<g transform="matrix(1 0 0 1 299.3366 482.3635)">
<path d="M 0 0 C -2.204 0.019 -4.414 -0.008 -6.629 -0.069 C -13.46 -3.191 -19.755 -5.034 -23.681 -6.181 C -31.436 -8.465 -45.871 -12.718 -57.486 -22.521 C -69.1 -32.323 -75.859 -45.958 -79.49 -53.284 C -82.765 -59.923 -89.577 -73.74 -101.277 -83.615 C -112.979 -93.491 -127.6 -97.764 -134.627 -99.818 C -142.382 -102.103 -156.817 -106.355 -168.431 -116.158 C -170.355 -117.781 -172.099 -119.531 -173.765 -121.319 C -174.68 -123.81 -175.535 -126.326 -176.346 -128.859 C -173.55 -125.208 -170.343 -121.604 -166.576 -118.425 C -155.132 -108.767 -141.382 -104.716 -133.167 -102.295 C -126.068 -100.22 -111.294 -95.903 -99.422 -85.883 C -87.55 -75.863 -80.667 -61.902 -77.36 -55.194 C -73.773 -47.962 -67.103 -34.516 -55.711 -24.863 C -54.587 -22.825 -53.494 -21.282 -52.46 -20.531 C -49.09 -18.083 -47.213 -17.078 -44.721 -17.443 C -36.302 -12.857 -27.926 -10.339 -22.221 -8.658 C -17.315 -7.225 -8.745 -4.717 0 0" fill="#236233"/>
</g>
</g>
<g>
<g transform="matrix(1 0 0 1 210.3904 460.0661)">
<path d="M 0 0 C -1.596 -0.872 -3.19 -1.745 -4.753 -2.662 C -6.129 -5.206 -7.277 -7.513 -8.21 -9.396 C -11.486 -16.036 -18.3 -29.853 -29.999 -39.727 C -41.029 -49.036 -54.651 -53.366 -62.063 -55.553 C -62.907 -56.754 -63.72 -57.977 -64.536 -59.197 C -63.616 -58.92 -62.706 -58.648 -61.888 -58.407 C -54.787 -56.332 -40.012 -52.012 -28.143 -41.994 C -16.273 -31.977 -9.388 -18.015 -6.08 -11.306 C -4.616 -8.353 -2.604 -4.345 0 0" fill="#236233"/>
</g>
</g>
<g>
<g transform="matrix(1 0 0 1 194.3264 450.1926)">
<path d="M 0 0 C -1.901 -1.312 -3.771 -2.661 -5.615 -4.04 C -9.302 -9.945 -14.17 -16.444 -20.521 -21.804 C -24.859 -25.465 -29.598 -28.354 -34.204 -30.647 C -35.654 -32.316 -37.076 -34.008 -38.465 -35.727 C -32.102 -33.103 -24.977 -29.398 -18.665 -24.071 C -9.919 -16.69 -3.896 -7.185 0 0" fill="#236233"/>
</g>
</g>
<g>
<g transform="matrix(1 0 0 1 283.7019 465.656)">
<path d="M 0 0 C 6.932 2.026 21.171 6.205 32.891 15.726 C 31.475 15.874 30.061 16.032 28.64 16.146 C 17.596 8.064 4.931 4.346 -1.46 2.477 C -6.092 1.113 -13.118 -0.987 -20.493 -4.52 C -19.539 -5.101 -18.657 -5.698 -17.742 -6.389 C -11.011 -3.286 -4.622 -1.362 0 0" fill="#236233"/>
</g>
</g>
<g>
<g transform="matrix(1 0 0 1 234.8679 436.1042)">
<path d="M 0 0 C -3.805 -5.777 -6.552 -11.275 -8.435 -15.074 C -11.709 -21.713 -18.521 -35.53 -30.223 -45.405 C -41.923 -55.281 -56.545 -59.553 -63.572 -61.608 C -71.327 -63.893 -85.763 -68.146 -97.376 -77.947 C -107.311 -86.332 -113.671 -97.493 -117.583 -105.139 C -118.155 -108.16 -118.653 -111.202 -119.081 -114.262 C -118.392 -112.917 -117.761 -111.659 -117.25 -110.62 C -113.654 -103.37 -106.964 -89.873 -95.521 -80.215 C -84.078 -70.557 -70.327 -66.506 -62.112 -64.085 C -55.013 -62.01 -40.239 -57.692 -28.367 -47.673 C -17.357 -38.38 -10.679 -25.773 -7.124 -18.63 C -6.481 -16.542 -5.711 -14.383 -4.67 -12.014 C -3.219 -8.71 -1.638 -4.457 0 0" fill="#236233"/>
</g>
</g>
<g>
<g transform="matrix(1 0 0 1 212.0407 381.6609)">
<path d="M 0 0 C 5.104 4.307 9.235 9.333 12.607 14.208 C 12.76 16.251 12.898 18.2 13.037 20.01 C 9.352 14.11 4.488 7.621 -1.855 2.268 C -13.554 -7.606 -28.176 -11.881 -35.205 -13.936 C -42.958 -16.22 -57.39 -20.47 -69.008 -30.275 C -80.626 -40.081 -87.382 -53.712 -91.012 -61.038 C -91.896 -62.829 -93.062 -65.167 -94.486 -67.785 C -92.695 -66.49 -90.966 -65.2 -89.389 -63.969 C -89.225 -63.639 -89.03 -63.251 -88.881 -62.949 C -85.288 -55.699 -78.601 -42.205 -67.153 -32.543 C -55.705 -22.881 -41.958 -18.832 -33.745 -16.414 C -26.644 -14.338 -11.869 -10.018 0 0" fill="#236233"/>
</g>
</g>
<g>
<g transform="matrix(1 0 0 1 289.2429 458.8845)">
<path d="M 0 0 C 7.101 2.076 21.875 6.396 33.744 16.414 C 35.459 17.86 37.04 19.402 38.551 20.98 C 37.359 21.18 36.164 21.364 34.968 21.541 C 33.968 20.569 32.971 19.594 31.89 18.681 C 20.19 8.808 5.568 4.533 -1.46 2.478 C -5.667 1.239 -11.854 -0.621 -18.477 -3.591 C -17.755 -4.211 -16.956 -4.897 -16.079 -5.652 C -9.817 -2.915 -4.004 -1.179 0 0" fill="#236233"/>
</g>
</g>
<g>
<g transform="matrix(1 0 0 1 295.8288 450.8357)">
<path d="M 0 0 C 7.101 2.076 21.875 6.396 33.745 16.413 C 37.487 19.572 40.682 23.127 43.477 26.719 C 42.441 26.963 41.398 27.18 40.357 27.405 C 37.869 24.355 35.075 21.37 31.89 18.681 C 20.191 8.807 5.568 4.532 -1.46 2.478 C -5.385 1.321 -11.024 -0.348 -17.141 -2.977 C -16.466 -3.718 -15.801 -4.471 -15.153 -5.235 C -9.245 -2.727 -3.807 -1.122 0 0" fill="#236233"/>
</g>
</g>
<g>
<g transform="matrix(1 0 0 1 192.5827 362.5974)">
<path d="M 0 0 C -3.632 -1.3 -6.822 -2.238 -9.16 -2.921 C -16.914 -5.205 -31.346 -9.456 -42.964 -19.261 C -47.441 -23.04 -51.181 -27.385 -54.313 -31.72 C -51.7 -30.003 -48.95 -28.305 -46.473 -26.737 C -44.8 -24.931 -43.046 -23.164 -41.109 -21.529 C -31.943 -13.793 -21.349 -9.682 -13.255 -7.099 C -6.651 -3.644 -1.107 -0.751 0 0" fill="#236233"/>
</g>
</g>
<g>
<g transform="matrix(1 0 0 1 299.9099 446.5407)">
<path d="M 0 0 C -3.916 -1.153 -9.54 -2.816 -15.642 -5.435 C -15.025 -6.252 -14.446 -7.044 -13.909 -7.802 C -7.917 -5.241 -2.395 -3.612 1.46 -2.477 C 2.708 -2.112 4.203 -1.672 5.867 -1.15 C 7.518 0.817 9.18 2.485 10.92 3.568 C 6.555 1.922 2.711 0.793 0 0" fill="#236233"/>
</g>
</g>
<g>
<g transform="matrix(1 0 0 1 348.1101 475.2522)">
<path d="M 0 0 C -0.966 0.278 -1.937 0.539 -2.908 0.801 C -6.149 -3.79 -10.073 -8.474 -14.852 -12.507 C -21.039 -17.729 -28.037 -21.374 -34.305 -23.964 C -34.126 -23.933 -33.949 -23.878 -33.768 -23.862 C -31.593 -23.668 -29.797 -23.891 -28.238 -24.405 C -23.151 -21.981 -17.834 -18.857 -12.996 -14.774 C -7.695 -10.3 -3.438 -5.05 0 0" fill="#236233"/>
</g>
</g>
<g>
<g transform="matrix(1 0 0 1 347.2409 445.6574)">
<path d="M 0 0 C 8.552 7.217 14.482 16.449 18.386 23.574 C 17.513 23.923 16.634 24.26 15.755 24.597 C 11.892 17.689 6.199 9.065 -1.855 2.267 C -6.509 -1.66 -11.621 -4.69 -16.538 -7.058 C -16.061 -7.822 -15.524 -8.657 -14.976 -9.504 C -9.97 -7.098 -4.754 -4.012 0 0" fill="#236233"/>
</g>
</g>
<g>
<g transform="matrix(1 0 0 1 371.9294 466.57)">
<path d="M 0 0 C -3.724 -7.266 -10.085 -18.362 -19.958 -26.694 C -24.927 -30.888 -30.421 -34.064 -35.64 -36.497 C -35.096 -37.304 -34.557 -38.102 -34.008 -38.91 C -28.723 -36.445 -23.151 -33.223 -18.103 -28.962 C -7.728 -20.206 -1.162 -8.439 2.536 -1.134 C 1.695 -0.746 0.847 -0.375 0 0" fill="#236233"/>
</g>
</g>
<g>
<g transform="matrix(1 0 0 1 379.1726 463.1809)">
<path d="M 0 0 C -3.315 -6.723 -10.091 -20.311 -21.661 -30.076 C -26.857 -34.462 -32.627 -37.738 -38.054 -40.21 C -37.479 -41.049 -36.94 -41.838 -36.408 -42.617 C -30.919 -40.114 -25.077 -36.793 -19.806 -32.344 C -7.932 -22.322 -1.049 -8.364 2.258 -1.656 C 2.318 -1.534 2.397 -1.378 2.46 -1.252 C 1.642 -0.831 0.824 -0.409 0 0" fill="#236233"/>
</g>
</g>
<g>
<g transform="matrix(1 0 0 1 387.571 458.7419)">
<path d="M 0 0 C -0.619 -1.213 -1.188 -2.353 -1.686 -3.356 C -4.959 -9.995 -11.771 -23.81 -23.473 -33.687 C -28.956 -38.314 -35.074 -41.7 -40.757 -44.215 C -40.249 -45.004 -39.723 -45.822 -39.172 -46.649 C -33.41 -44.1 -27.197 -40.663 -21.617 -35.954 C -9.744 -25.933 -2.861 -11.974 0.445 -5.266 C 1.01 -4.127 1.682 -2.794 2.405 -1.385 C 1.605 -0.921 0.807 -0.453 0 0" fill="#236233"/>
</g>
</g>
<g>
<g transform="matrix(1 0 0 1 394.5075 454.6443)">
<path d="M 0 0 C -1.204 -2.258 -2.236 -4.326 -3.081 -6.029 C -6.356 -12.669 -13.17 -26.487 -24.869 -36.36 C -30.531 -41.14 -36.875 -44.598 -42.716 -47.137 C -42.069 -47.909 -41.378 -48.646 -40.65 -49.359 C -34.864 -46.806 -28.618 -43.357 -23.014 -38.627 C -11.144 -28.61 -4.258 -14.649 -0.95 -7.941 C -0.05 -6.125 1.044 -3.918 2.357 -1.479 C 1.576 -0.979 0.789 -0.488 0 0" fill="#236233"/>
</g>
</g>
<g>
<g transform="matrix(1 0 0 1 404.9206 447.7375)">
<path d="M 0 0 C -0.763 0.544 -1.537 1.069 -2.307 1.602 C -4.192 -1.742 -5.734 -4.804 -6.907 -7.172 C -10.183 -13.812 -16.997 -27.629 -28.695 -37.502 C -33.513 -41.568 -38.822 -44.673 -43.897 -47.076 C -43.184 -47.341 -42.488 -47.629 -41.71 -47.809 C -41.035 -47.964 -40.359 -48.094 -39.681 -48.209 C -35.344 -45.972 -30.921 -43.214 -26.84 -39.77 C -14.971 -29.752 -8.085 -15.791 -4.776 -9.083 C -3.568 -6.645 -1.973 -3.468 0 0" fill="#236233"/>
</g>
</g>
<g>
<g transform="matrix(1 0 0 1 409.2732 444.5285)">
<path d="M 0 0 C -2.435 -4.127 -4.318 -7.904 -5.72 -10.734 C -8.995 -17.374 -15.81 -31.191 -27.508 -41.064 C -29.458 -42.71 -31.492 -44.187 -33.556 -45.537 C -31.854 -45.484 -30.041 -45.391 -28.078 -45.267 C -27.259 -44.646 -26.448 -44.004 -25.652 -43.332 C -13.783 -33.314 -6.897 -19.353 -3.589 -12.645 C -2.17 -9.781 -0.244 -5.931 2.243 -1.74 C 1.498 -1.157 0.754 -0.572 0 0" fill="#236233"/>
</g>
</g>
<g>
<g transform="matrix(1 0 0 1 416.9997 438.3332)">
<path d="M 0 0 C -2.986 -4.839 -5.253 -9.343 -6.86 -12.587 C -9.647 -18.239 -15.032 -29.074 -23.776 -38.268 C -22.449 -38.185 -21.081 -38.102 -19.634 -38.023 C -12.074 -29.301 -7.302 -19.714 -4.729 -14.499 C -3.118 -11.247 -0.841 -6.719 2.166 -1.864 C 1.447 -1.238 0.728 -0.615 0 0" fill="#236233"/>
</g>
</g>
<g>
<g transform="matrix(1 0 0 1 423.2849 432.7741)">
<path d="M 0 0 C -3.376 -5.303 -5.862 -10.284 -7.604 -13.8 C -9.668 -17.984 -13.146 -25.017 -18.355 -32.117 C -18.179 -32.111 -18.018 -32.103 -17.84 -32.096 C -16.807 -32.059 -15.811 -32.042 -14.818 -32.028 C -10.408 -25.624 -7.344 -19.503 -5.474 -15.71 C -3.738 -12.208 -1.26 -7.239 2.108 -1.957 C 1.413 -1.296 0.704 -0.65 0 0" fill="#236233"/>
</g>
</g>
<g>
<g transform="matrix(1 0 0 1 430.5251 425.7453)">
<path d="M 0 0 C -3.719 -5.685 -6.404 -11.078 -8.259 -14.82 C -9.527 -17.393 -11.345 -21.053 -13.755 -25.133 C -12.693 -25.185 -11.649 -25.245 -10.631 -25.318 C -8.727 -21.952 -7.213 -18.931 -6.128 -16.73 C -4.297 -13.035 -1.648 -7.714 2.013 -2.108 C 1.345 -1.401 0.678 -0.695 0 0" fill="#236233"/>
</g>
</g>
<g>
<g transform="matrix(1 0 0 1 436.3972 419.4558)">
<path d="M 0 0 C -3.884 -5.86 -6.684 -11.454 -8.591 -15.302 C -9.177 -16.491 -9.921 -17.969 -10.742 -19.554 C -9.744 -19.664 -8.764 -19.779 -7.798 -19.9 C -7.303 -18.919 -6.853 -18.007 -6.46 -17.212 C -4.591 -13.44 -1.857 -7.973 1.922 -2.239 C 1.28 -1.494 0.653 -0.734 0 0" fill="#236233"/>
</g>
</g>
<g>
<g transform="matrix(1 0 0 1 443.0505 411.5041)">
<path d="M 0 0 C -3.154 -4.747 -5.589 -9.29 -7.414 -12.912 C -6.44 -13.052 -5.474 -13.19 -4.514 -13.327 C -2.849 -10.092 -0.756 -6.297 1.855 -2.335 C 1.248 -1.547 0.619 -0.778 0 0" fill="#236233"/>
</g>
</g>
<g>
<g transform="matrix(1 0 0 1 448.4021 404.4577)">
<path d="M 0 0 C -1.607 -2.436 -3.006 -4.792 -4.246 -7.023 C -3.241 -7.142 -2.234 -7.251 -1.224 -7.348 C -0.311 -5.765 0.678 -4.135 1.768 -2.464 C 1.188 -1.634 0.592 -0.819 0 0" fill="#236233"/>
</g>
</g>
<g>
<g transform="matrix(1 0 0 1 221.8996 143.3684)">
<path d="M 0 0 C 6.294 2.34 13.261 5.655 19.552 10.451 C 32.006 19.946 39.621 33.57 43.279 40.115 C 45.533 44.129 48.934 50.108 53.608 56.199 C 52.954 56.698 52.192 57.301 51.341 57.938 C 46.778 51.925 43.445 46.066 41.22 42.104 C 37.598 35.626 30.063 22.143 17.789 12.784 C 12.731 8.929 7.222 6.05 1.984 3.862 C 1.341 2.604 0.677 1.314 0 0" fill="#236233"/>
</g>
</g>
<g>
<g transform="matrix(1 0 0 1 216.8093 133.1252)">
<path d="M 0 0 C 7.992 2.146 19.822 6.037 29.91 13.728 C 42.364 23.223 49.978 36.847 53.636 43.394 C 56.08 47.747 59.834 54.411 65.151 61.028 C 64.594 61.791 64.101 62.392 63.692 62.741 L 63.775 62.758 C 63.589 62.92 63.409 63.052 63.224 63.207 C 57.839 56.514 54.047 49.78 51.577 45.381 C 47.956 38.901 40.421 25.419 28.146 16.061 C 19.395 9.389 9.293 5.618 1.602 3.36 C 1.016 2.169 0.466 1.027 0 0" fill="#236233"/>
</g>
</g>
<g>
<g transform="matrix(1 0 0 1 230.1135 126.9572)">
<path d="M 0 0 C 7.086 2.363 15.444 5.955 22.867 11.614 C 35.321 21.109 42.934 34.732 46.592 41.279 C 48.957 45.492 52.569 51.867 57.613 58.268 C 57.045 59.159 56.504 60.016 55.987 60.841 C 50.709 54.23 46.972 47.611 44.534 43.268 C 40.913 36.788 33.377 23.306 21.103 13.947 C 12.902 7.695 3.515 3.992 -3.964 1.691 C -2.645 1.123 -1.333 0.539 0 0" fill="#236233"/>
</g>
</g>
<g>
<g transform="matrix(1 0 0 1 242.2556 122.5676)">
<path d="M 0 0 C 5.294 2.216 10.865 5.131 15.99 9.038 C 28.444 18.533 36.059 32.156 39.717 38.703 C 42.031 42.825 45.55 49.02 50.425 55.28 C 49.835 56.103 49.267 56.923 48.709 57.738 C 43.654 51.306 40.032 44.92 37.658 40.691 C 34.037 34.212 26.501 20.729 14.227 11.371 C 8.318 6.867 1.795 3.691 -4.19 1.401 C -2.802 0.914 -1.401 0.455 0 0" fill="#236233"/>
</g>
</g>
<g>
<g transform="matrix(1 0 0 1 262.7429 125.6574)">
<path d="M 0 0 C -3.179 -2.424 -6.537 -4.459 -9.895 -6.185 C -8.499 -6.546 -7.098 -6.89 -5.691 -7.219 C -3.157 -5.787 -0.646 -4.171 1.764 -2.333 C 14.218 7.162 21.832 20.785 25.49 27.332 C 27.837 31.512 31.416 37.822 36.399 44.173 C 35.744 44.882 35.097 45.604 34.467 46.347 C 29.42 39.921 25.803 33.545 23.432 29.32 C 19.81 22.841 12.274 9.358 0 0" fill="#236233"/>
</g>
</g>
<g>
<g transform="matrix(1 0 0 1 381.8415 205.592)">
<path d="M 0 0 C -8.25 -5.627 -17.325 -8.921 -24.321 -10.953 C -26.072 -12.295 -27.771 -13.71 -29.403 -15.193 C -21.803 -13.317 -7.53 -9.533 4.342 -0.481 C 4.988 0.011 5.566 0.554 6.187 1.067 C 4.094 0.778 2.024 0.435 0 0" fill="#236233"/>
</g>
</g>
<g>
<g transform="matrix(1 0 0 1 268.0095 118.6916)">
<path d="M 0 0 C -0.911 -0.694 -1.84 -1.349 -2.775 -1.981 C -1.422 -2.233 -0.059 -2.446 1.303 -2.667 C 1.455 -2.554 1.611 -2.449 1.764 -2.333 C 14.218 7.162 21.832 20.785 25.489 27.331 C 27.994 31.79 31.865 38.67 37.39 45.442 C 36.63 46 35.885 46.604 35.149 47.237 C 29.725 40.514 25.912 33.739 23.432 29.32 C 19.81 22.841 12.274 9.357 0 0" fill="#236233"/>
</g>
</g>
<g>
<g transform="matrix(1 0 0 1 399.6745 207.5461)">
<path d="M 0 0 C -2.665 -2.949 -5.636 -5.824 -8.994 -8.384 C -21.269 -17.742 -36.226 -21.408 -43.415 -23.171 C -46.854 -24.021 -51.612 -25.228 -56.856 -27.037 C -58.212 -28.576 -59.51 -30.091 -60.74 -31.56 C -53.461 -28.552 -46.614 -26.821 -42.061 -25.695 C -34.797 -23.916 -19.685 -20.212 -7.23 -10.717 C -2.977 -7.475 0.67 -3.745 3.829 0.014 C 2.551 0.034 1.274 0.023 0 0" fill="#236233"/>
</g>
</g>
<g>
<g transform="matrix(1 0 0 1 283.0046 114.3254)">
<path d="M 0 0 C 8.373 8.529 13.843 18.205 16.755 23.416 C 19.755 28.758 24.713 37.57 32.132 45.513 C 31.059 45.667 30.002 45.926 28.961 46.282 C 22.178 38.641 17.545 30.478 14.697 25.405 C 11.596 19.857 5.598 9.187 -3.761 0.355 C -2.51 0.223 -1.257 0.107 0 0" fill="#236233"/>
</g>
</g>
<g>
<g transform="matrix(1 0 0 1 410.3835 207.2502)">
<path d="M 0 0 C -3.795 -5.151 -8.558 -10.573 -14.436 -15.055 C -26.71 -24.413 -41.668 -28.079 -48.857 -29.841 C -56.789 -31.801 -71.554 -35.449 -83.745 -44.745 C -95.936 -54.039 -103.403 -67.34 -107.415 -74.486 C -109.82 -78.79 -113.997 -86.177 -120.097 -93.398 C -118.888 -93.452 -117.677 -93.489 -116.464 -93.52 C -111.215 -86.905 -107.555 -80.41 -105.356 -76.476 C -101.385 -69.402 -93.993 -56.235 -81.981 -47.077 C -69.969 -37.919 -55.354 -34.308 -47.502 -32.366 C -40.239 -30.587 -25.126 -26.883 -12.672 -17.388 C -6.001 -12.302 -0.76 -6.051 3.27 -0.318 C 2.181 -0.205 1.095 -0.083 0 0" fill="#236233"/>
</g>
</g>
<g>
<g transform="matrix(1 0 0 1 421.3425 205.9123)">
<path d="M 0 0 C -4.231 -6.798 -10.483 -15.403 -19.134 -21.999 C -31.409 -31.356 -46.366 -35.022 -53.556 -36.784 C -61.487 -38.744 -76.252 -42.394 -88.443 -51.688 C -100.634 -60.982 -108.102 -74.283 -112.113 -81.43 C -113.6 -84.089 -115.785 -87.947 -118.646 -92.195 C -117.493 -92.168 -116.338 -92.114 -115.184 -92.063 C -113.015 -88.675 -111.289 -85.627 -110.055 -83.419 C -106.083 -76.346 -98.691 -63.179 -86.68 -54.021 C -74.667 -44.862 -60.052 -41.251 -52.201 -39.31 C -44.938 -37.53 -29.824 -33.826 -17.37 -24.331 C -7.956 -17.153 -1.316 -7.627 2.949 -0.572 C 1.967 -0.379 0.995 -0.17 0 0" fill="#236233"/>
</g>
</g>
<g>
<g transform="matrix(1 0 0 1 429.7077 204.1428)">
<path d="M 0 0 C -3.964 -6.984 -11.152 -18.747 -22.233 -27.195 C -34.505 -36.552 -49.464 -40.219 -56.653 -41.981 C -64.584 -43.94 -79.346 -47.587 -91.542 -56.886 C -103.736 -66.183 -111.201 -79.481 -115.212 -86.627 C -115.741 -87.574 -116.38 -88.703 -117.079 -89.914 C -115.956 -89.825 -114.83 -89.705 -113.705 -89.595 C -113.527 -89.278 -113.314 -88.906 -113.152 -88.616 C -109.184 -81.544 -101.794 -68.38 -89.778 -59.218 C -77.761 -50.056 -63.148 -46.446 -55.299 -44.508 C -48.035 -42.727 -32.921 -39.021 -20.47 -29.528 C -8.486 -20.392 -1.021 -7.494 2.789 -0.696 C 1.876 -0.445 0.933 -0.23 0 0" fill="#236233"/>
</g>
</g>
<g>
<g transform="matrix(1 0 0 1 439.0905 201.3674)">
<path d="M 0 0 C -0.706 -1.223 -1.358 -2.374 -1.923 -3.381 C -5.546 -9.861 -13.083 -23.345 -25.355 -32.701 C -37.628 -42.058 -52.586 -45.725 -59.775 -47.487 C -67.706 -49.446 -82.468 -53.093 -94.664 -62.392 C -103.82 -69.372 -110.31 -78.607 -114.673 -85.803 C -113.452 -85.626 -112.233 -85.455 -111.012 -85.253 C -106.762 -78.603 -100.866 -70.798 -92.9 -64.725 C -80.883 -55.562 -66.271 -51.952 -58.421 -50.014 C -51.157 -48.233 -36.043 -44.527 -23.592 -35.034 C -11.141 -25.541 -3.523 -11.917 0.136 -5.37 C 0.852 -4.095 1.721 -2.573 2.665 -0.961 C 1.797 -0.627 0.897 -0.314 0 0" fill="#236233"/>
</g>
</g>
<g>
<g transform="matrix(1 0 0 1 446.7097 198.3254)">
<path d="M 0 0 C -1.707 -2.763 -3.146 -5.292 -4.276 -7.305 C -7.897 -13.785 -15.433 -27.268 -27.708 -36.626 C -39.982 -45.984 -54.939 -49.649 -62.129 -51.411 C -70.061 -53.372 -84.825 -57.021 -97.017 -66.315 C -102.658 -70.616 -107.248 -75.771 -110.992 -80.781 C -109.508 -80.472 -108.05 -80.108 -106.582 -79.765 C -103.375 -75.854 -99.628 -71.983 -95.253 -68.648 C -83.24 -59.489 -68.625 -55.878 -60.774 -53.938 C -54.883 -52.494 -43.825 -49.782 -33.212 -43.742 C -23.825 -36.101 -15.25 -27.581 -7.586 -18.32 C -5.297 -14.773 -3.499 -11.587 -2.218 -9.295 C -0.991 -7.11 0.605 -4.312 2.519 -1.264 C 1.687 -0.838 0.874 -0.404 0 0" fill="#236233"/>
</g>
</g>
<g>
<g transform="matrix(1 0 0 1 355.9538 123.7287)">
<path d="M 0 0 C -0.499 -0.38 -0.94 -0.802 -1.424 -1.194 C 2.49 0.066 6.322 1.472 10.098 2.977 C 14.301 5.25 18.523 7.011 22.499 8.4 C 26.527 10.365 30.433 12.513 34.272 14.75 C 26.219 12.756 11.905 9.077 0 0" fill="#236233"/>
</g>
</g>
</g>
</g>
</svg>
