<svg xmlns="http://www.w3.org/2000/svg" viewBox="0 0 45 45" role="img" aria-label="Embaixada Carioca">
<g transform="matrix(1 0 0 -1 0 45)">
<g>
<g transform="matrix(1 0 0 1 6.3519 24.9652)">
<path d="M 0 0 L -3.396 0.887 L -2.874 2.885 L -2.339 2.85 L -2.721 1.389 L -1.807 1.15 L -1.521 2.242 L -0.979 2.211 L -1.292 1.016 L -0.338 0.766 L 0.081 2.37 L 0.612 2.342 Z" fill="#236233"/>
</g>
</g>
<g>
<g transform="matrix(1 0 0 1 7.3929 30.5829)">
<path d="M 0 0 L -1.352 -0.163 L 0.491 -1.255 L 0.157 -1.82 L -2.862 -0.03 L -2.649 0.329 L -0.659 0.509 L -1.512 2.25 L -1.307 2.595 L 1.713 0.805 L 1.373 0.232 L -0.367 1.264 L 0.099 0.237 Z" fill="#236233"/>
</g>
</g>
<g>
<g>
<g transform="matrix(1 0 0 1 10.3207 34.9183)">
<path d="M 0 0 L -0.555 -0.516 L 0.116 -1.238 L 0.638 -0.753 C 0.77 -0.631 0.846 -0.503 0.866 -0.372 C 0.887 -0.239 0.846 -0.118 0.742 -0.007 C 0.633 0.111 0.512 0.17 0.38 0.17 C 0.248 0.17 0.121 0.113 0 0 M -1.086 0.922 L -1.519 0.52 L -0.924 -0.119 L -0.566 0.213 C -0.425 0.345 -0.337 0.477 -0.304 0.61 C -0.27 0.743 -0.302 0.862 -0.399 0.968 C -0.508 1.083 -0.616 1.135 -0.727 1.122 C -0.837 1.108 -0.957 1.042 -1.086 0.922 M 1.051 -1.123 L 0.012 -2.089 L -2.378 0.482 L -1.395 1.396 C -1.134 1.638 -0.877 1.77 -0.622 1.79 C -0.368 1.81 -0.126 1.697 0.104 1.45 C 0.253 1.289 0.305 1.052 0.257 0.74 C 0.646 0.843 0.975 0.751 1.242 0.464 C 1.46 0.23 1.551 -0.03 1.515 -0.315 C 1.479 -0.6 1.324 -0.869 1.051 -1.123" fill="#236233"/>
</g>
</g>
<g>
<g transform="matrix(1 0 0 1 13.4945 38.3876)">
<path d="M 0 0 L 0.159 -1.295 L 0.973 -0.875 Z M -0.159 0.952 L 2.625 -1.514 L 2.08 -1.9 L 1.402 -1.263 L 0.236 -1.865 L 0.344 -2.739 L -0.243 -3.042 L -0.656 0.695 Z" fill="#236233"/>
</g>
</g>
<g>
<g transform="matrix(1 0 0 1 17.6429 37.2591)">
<path d="M 0 0 L -0.904 3.392 L -0.271 3.561 L 0.634 0.169 Z" fill="#236233"/>
</g>
</g>
<g>
<g transform="matrix(1 0 0 1 19.8109 37.7938)">
<path d="M 0 0 L 1.138 1.823 L -0.076 3.386 L 0.489 3.636 L 1.512 2.272 L 2.308 3.605 L 2.993 3.633 L 1.86 1.826 L 3.068 0.124 L 2.378 0.096 L 1.491 1.382 L 0.676 0.027 Z" fill="#236233"/>
</g>
</g>
<g>
<g transform="matrix(1 0 0 1 26.2523 39.9652)">
<path d="M 0 0 L -0.724 -1.085 L 0.167 -1.297 Z M 0.499 0.826 L 1.003 -2.859 L 0.339 -2.797 L 0.24 -1.872 L -1.037 -1.568 L -1.524 -2.301 L -2.168 -2.148 L -0.045 0.955 Z" fill="#236233"/>
</g>
</g>
<g>
<g transform="matrix(1 0 0 1 31.2543 38.3793)">
<path d="M 0 0 L -0.594 0.334 L -1.762 -1.739 L -1.199 -2.056 C -0.945 -2.199 -0.7 -2.226 -0.465 -2.135 C -0.229 -2.044 -0.008 -1.816 0.198 -1.451 C 0.382 -1.124 0.46 -0.837 0.432 -0.59 C 0.403 -0.343 0.26 -0.146 0 0 M -1.466 -2.551 L -2.609 -1.907 L -0.887 1.151 L 0.256 0.507 C 0.561 0.336 0.781 0.128 0.917 -0.117 C 1.054 -0.362 1.109 -0.626 1.084 -0.91 C 1.058 -1.193 0.961 -1.485 0.792 -1.785 C 0.521 -2.268 0.187 -2.577 -0.206 -2.713 C -0.6 -2.849 -1.02 -2.795 -1.466 -2.551" fill="#236233"/>
</g>
</g>
<g>
<g transform="matrix(1 0 0 1 35.1644 34.9545)">
<path d="M 0 0 L -1.188 -0.537 L -0.546 -1.189 Z M 0.861 0.435 L -0.665 -2.957 L -1.195 -2.551 L -0.789 -1.714 L -1.71 -0.78 L -2.513 -1.143 L -2.977 -0.672 L 0.469 0.833 Z" fill="#236233"/>
</g>
</g>
<g>
<g transform="matrix(1 0 0 1 2.5707 15.9081)">
<path d="M 0 0 C -0.092 0.367 -0.119 0.748 -0.083 1.145 C -0.047 1.54 0.057 1.911 0.229 2.259 C 0.399 2.605 0.641 2.914 0.951 3.184 C 1.262 3.453 1.644 3.644 2.095 3.757 C 2.632 3.891 3.121 3.882 3.563 3.73 C 4.007 3.579 4.367 3.328 4.647 2.978 L 4.254 2.569 C 4.107 2.746 3.948 2.886 3.776 2.988 C 3.604 3.092 3.427 3.167 3.248 3.213 C 3.067 3.26 2.889 3.28 2.71 3.275 C 2.531 3.271 2.36 3.247 2.196 3.206 C 1.835 3.116 1.534 2.962 1.295 2.744 C 1.056 2.525 0.871 2.272 0.742 1.985 C 0.612 1.697 0.538 1.391 0.517 1.065 C 0.496 0.74 0.524 0.424 0.602 0.113 C 0.686 -0.225 0.824 -0.533 1.018 -0.814 C 1.211 -1.095 1.437 -1.329 1.697 -1.517 C 1.957 -1.705 2.241 -1.835 2.55 -1.907 C 2.859 -1.979 3.175 -1.975 3.497 -1.895 C 3.666 -1.853 3.834 -1.788 4.001 -1.7 C 4.169 -1.612 4.323 -1.501 4.467 -1.364 C 4.609 -1.229 4.734 -1.073 4.84 -0.896 C 4.946 -0.722 5.022 -0.521 5.068 -0.297 L 5.624 -0.432 C 5.585 -0.685 5.5 -0.921 5.368 -1.14 C 5.237 -1.358 5.079 -1.554 4.895 -1.729 C 4.71 -1.902 4.506 -2.051 4.281 -2.174 C 4.058 -2.297 3.829 -2.387 3.598 -2.444 C 3.186 -2.548 2.784 -2.551 2.394 -2.453 C 2.004 -2.355 1.647 -2.19 1.325 -1.957 C 1.003 -1.724 0.726 -1.437 0.494 -1.096 C 0.262 -0.755 0.098 -0.39 0 0" fill="#236233"/>
</g>
</g>
<g>
<g transform="matrix(1 0 0 1 12.6869 17.6649)">
<path d="M 0 0 L -1.964 2.716 L -2.439 -0.608 Z M -2.386 3.359 L -1.886 3.484 L 2.137 -1.997 L 1.51 -2.153 L 0.254 -0.438 L -2.448 -1.113 L -2.742 -3.215 L -3.378 -3.373 Z" fill="#236233"/>
</g>
</g>
<g>
<g transform="matrix(1 0 0 1 16.5296 19.3709)">
<path d="M 0 0 L 1.466 0.366 C 1.573 0.393 1.667 0.443 1.747 0.519 C 1.827 0.593 1.891 0.684 1.936 0.789 C 1.981 0.895 2.009 1.013 2.019 1.144 C 2.028 1.273 2.016 1.408 1.981 1.545 C 1.945 1.688 1.89 1.814 1.814 1.924 C 1.739 2.033 1.653 2.123 1.555 2.192 C 1.456 2.262 1.352 2.309 1.24 2.333 C 1.129 2.357 1.023 2.356 0.921 2.331 L -0.493 1.978 Z M -0.398 -3.378 L -1.922 2.727 L 0.738 3.391 C 1.015 3.459 1.285 3.465 1.549 3.406 C 1.812 3.346 2.053 3.242 2.27 3.092 C 2.487 2.942 2.675 2.758 2.831 2.538 C 2.988 2.318 3.097 2.085 3.158 1.839 C 3.257 1.444 3.25 1.06 3.136 0.687 C 3.021 0.314 2.816 0.015 2.519 -0.211 L 4.464 -2.164 L 3.15 -2.492 L 1.412 -0.753 L 0.26 -1.04 L 0.771 -3.087 Z" fill="#236233"/>
</g>
</g>
<g>
<g transform="matrix(1 0 0 1 22.3636 17.5858)">
<path d="M 0 0 L -1.523 6.105 L -0.354 6.397 L 1.169 0.292 Z" fill="#236233"/>
</g>
</g>
<g>
<g transform="matrix(1 0 0 1 25.2699 21.5526)">
<path d="M 0 0 C 0.065 -0.264 0.169 -0.509 0.31 -0.735 C 0.45 -0.962 0.618 -1.151 0.815 -1.304 C 1.012 -1.455 1.233 -1.562 1.479 -1.622 C 1.726 -1.682 1.987 -1.678 2.264 -1.608 C 2.546 -1.538 2.781 -1.417 2.97 -1.245 C 3.157 -1.074 3.302 -0.872 3.403 -0.639 C 3.504 -0.407 3.563 -0.16 3.578 0.104 C 3.593 0.366 3.569 0.623 3.507 0.875 C 3.44 1.139 3.336 1.384 3.192 1.61 C 3.049 1.836 2.879 2.025 2.683 2.177 C 2.485 2.329 2.265 2.433 2.02 2.491 C 1.773 2.548 1.516 2.543 1.245 2.476 C 0.962 2.405 0.726 2.284 0.535 2.111 C 0.344 1.939 0.199 1.738 0.1 1.509 C 0.001 1.281 -0.057 1.035 -0.072 0.772 C -0.087 0.51 -0.063 0.252 0 0 M 2.518 -2.66 C 2.077 -2.77 1.655 -2.782 1.253 -2.697 C 0.851 -2.611 0.485 -2.456 0.156 -2.23 C -0.173 -2.005 -0.455 -1.724 -0.689 -1.387 C -0.923 -1.049 -1.089 -0.686 -1.187 -0.296 C -1.288 0.111 -1.311 0.519 -1.254 0.929 C -1.197 1.339 -1.073 1.72 -0.882 2.072 C -0.69 2.425 -0.436 2.73 -0.117 2.99 C 0.202 3.249 0.574 3.432 0.998 3.537 C 1.433 3.646 1.852 3.655 2.255 3.563 C 2.659 3.472 3.024 3.313 3.352 3.083 C 3.679 2.855 3.959 2.571 4.193 2.234 C 4.427 1.896 4.593 1.536 4.688 1.152 C 4.79 0.745 4.813 0.338 4.759 -0.068 C 4.704 -0.475 4.582 -0.852 4.394 -1.2 C 4.204 -1.549 3.95 -1.853 3.631 -2.112 C 3.312 -2.371 2.94 -2.554 2.518 -2.66" fill="#236233"/>
</g>
</g>
<g>
<g transform="matrix(1 0 0 1 30.6752 22.9544)">
<path d="M 0 0 C -0.092 0.367 -0.119 0.749 -0.083 1.144 C -0.046 1.54 0.058 1.911 0.229 2.259 C 0.399 2.606 0.641 2.914 0.951 3.183 C 1.262 3.453 1.644 3.644 2.095 3.757 C 2.632 3.891 3.121 3.882 3.563 3.73 C 4.007 3.579 4.367 3.328 4.647 2.978 L 4.254 2.569 C 4.107 2.746 3.948 2.886 3.776 2.989 C 3.604 3.092 3.427 3.167 3.248 3.213 C 3.067 3.26 2.889 3.28 2.71 3.275 C 2.531 3.27 2.36 3.248 2.196 3.207 C 1.835 3.116 1.534 2.962 1.295 2.744 C 1.056 2.526 0.871 2.273 0.742 1.985 C 0.612 1.697 0.538 1.391 0.518 1.066 C 0.496 0.741 0.524 0.424 0.602 0.114 C 0.686 -0.225 0.824 -0.534 1.018 -0.814 C 1.211 -1.095 1.438 -1.329 1.697 -1.517 C 1.957 -1.705 2.241 -1.835 2.55 -1.907 C 2.859 -1.979 3.175 -1.975 3.497 -1.895 C 3.666 -1.852 3.834 -1.788 4.001 -1.7 C 4.169 -1.612 4.323 -1.5 4.467 -1.365 C 4.609 -1.229 4.734 -1.073 4.84 -0.897 C 4.946 -0.721 5.022 -0.521 5.068 -0.296 L 5.624 -0.432 C 5.585 -0.685 5.5 -0.921 5.369 -1.14 C 5.237 -1.358 5.079 -1.554 4.895 -1.728 C 4.71 -1.902 4.506 -2.051 4.281 -2.173 C 4.058 -2.296 3.829 -2.387 3.598 -2.445 C 3.186 -2.547 2.784 -2.55 2.395 -2.453 C 2.004 -2.355 1.647 -2.19 1.325 -1.957 C 1.003 -1.724 0.727 -1.437 0.494 -1.096 C 0.263 -0.755 0.098 -0.39 0 0" fill="#236233"/>
</g>
</g>
<g>
<g transform="matrix(1 0 0 1 40.4349 24.6229)">
<path d="M 0 0 L -1.964 2.715 L -2.439 -0.609 Z M -2.386 3.359 L -1.886 3.484 L 2.137 -1.997 L 1.51 -2.154 L 0.254 -0.439 L -2.448 -1.114 L -2.742 -3.215 L -3.378 -3.374 Z" fill="#236233"/>
</g>
</g>
<g>
<g transform="matrix(1 0 0 1 42.6674 20.5721)">
<path d="M 0 0 C -0.171 -0.042 -0.294 -0.189 -0.31 -0.365 C -1.065 -8.821 -7.051 -16.268 -15.72 -18.432 C -24.389 -20.596 -33.172 -16.835 -37.812 -9.727 C -37.908 -9.578 -38.086 -9.506 -38.258 -9.549 C -38.531 -9.617 -38.658 -9.937 -38.503 -10.174 C -33.678 -17.57 -24.539 -21.48 -15.521 -19.229 C -6.503 -16.979 -0.273 -9.232 0.511 -0.436 C 0.536 -0.154 0.274 0.069 0 0" fill="#236233"/>
</g>
</g>
<g>
<g transform="matrix(1 0 0 1 1.2718 21.0462)">
<path d="M 0 0 C 0.187 0.046 0.313 0.217 0.31 0.41 C 0.089 9.776 6.345 18.397 15.778 20.752 C 25.212 23.106 34.784 18.437 38.99 10.065 C 39.077 9.893 39.27 9.802 39.456 9.849 C 39.71 9.912 39.841 10.195 39.723 10.43 C 35.35 19.14 25.393 23.999 15.579 21.549 C 5.766 19.1 -0.74 10.131 -0.509 0.388 C -0.503 0.125 -0.254 -0.063 0 0" fill="#236233"/>
</g>
</g>
<g>
<g transform="matrix(1 0 0 1 7.3685 22.5897)">
<path d="M 0 0 C 0.087 0.022 0.148 0.098 0.153 0.187 C 0.505 6.379 4.808 11.898 11.113 13.473 C 17.418 15.046 23.81 12.197 27.029 6.896 C 27.076 6.819 27.166 6.781 27.253 6.803 C 27.386 6.836 27.449 6.989 27.378 7.106 C 24.068 12.558 17.497 15.489 11.014 13.871 C 4.53 12.252 0.106 6.577 -0.254 0.209 C -0.262 0.072 -0.133 -0.033 0 0" fill="#236233"/>
</g>
</g>
<g>
<g transform="matrix(1 0 0 1 36.2347 18.9149)">
<path d="M 0 0 C -0.075 -0.019 -0.133 -0.078 -0.15 -0.154 C -1.32 -5.347 -5.296 -9.709 -10.79 -11.08 C -16.283 -12.451 -21.843 -10.469 -25.315 -6.436 C -25.365 -6.377 -25.444 -6.351 -25.52 -6.369 C -25.669 -6.407 -25.725 -6.589 -25.624 -6.705 C -22.054 -10.852 -16.338 -12.888 -10.69 -11.479 C -5.042 -10.068 -0.954 -5.585 0.25 -0.247 C 0.284 -0.097 0.148 0.037 0 0" fill="#236233"/>
</g>
</g>
<g>
<g transform="matrix(1 0 0 1 10.4466 9.4266)">
<path d="M 0 0 L -0.28 0.258 L -0.724 -0.225 L -0.488 -0.441 C -0.378 -0.539 -0.272 -0.598 -0.172 -0.619 C -0.071 -0.64 0.018 -0.608 0.094 -0.525 C 0.176 -0.436 0.207 -0.35 0.187 -0.267 C 0.165 -0.184 0.104 -0.095 0 0 M -0.567 -0.794 L -0.936 -0.456 L -1.43 -0.995 L -1.087 -1.31 C -0.983 -1.404 -0.881 -1.458 -0.781 -1.471 C -0.681 -1.483 -0.591 -1.446 -0.511 -1.36 C -0.427 -1.269 -0.392 -1.174 -0.403 -1.075 C -0.416 -0.977 -0.471 -0.883 -0.567 -0.794 M -1.286 -1.562 L -1.927 -0.974 L -0.342 0.754 L 0.254 0.207 C 0.433 0.043 0.538 -0.123 0.569 -0.291 C 0.602 -0.459 0.541 -0.626 0.389 -0.792 C 0.281 -0.908 0.117 -0.954 -0.105 -0.928 C -0.054 -1.05 -0.036 -1.17 -0.05 -1.287 C -0.064 -1.405 -0.12 -1.517 -0.216 -1.621 C -0.364 -1.782 -0.532 -1.855 -0.723 -1.84 C -0.913 -1.824 -1.101 -1.731 -1.286 -1.562" fill="#236233"/>
</g>
</g>
<g>
<g transform="matrix(1 0 0 1 12.0902 7.8504)">
<path d="M 0 0 L -0.798 -0.558 L -0.238 -0.948 Z M 0.446 0.332 L -0.149 -2.081 L -0.49 -1.91 L -0.322 -1.271 L -1.066 -0.753 L -1.585 -1.11 L -1.895 -0.895 L 0.171 0.524 Z" fill="#236233"/>
</g>
</g>
<g>
<g transform="matrix(1 0 0 1 14.1146 6.8631)">
<path d="M 0 0 L -0.27 0.139 L -0.63 -0.563 L -0.367 -0.699 C -0.232 -0.769 -0.109 -0.797 0.002 -0.783 C 0.112 -0.771 0.199 -0.704 0.261 -0.584 C 0.326 -0.457 0.335 -0.347 0.286 -0.252 C 0.238 -0.157 0.143 -0.073 0 0 M -0.459 0.601 L 0.154 0.285 C 0.39 0.164 0.554 0.014 0.646 -0.168 C 0.739 -0.349 0.732 -0.543 0.625 -0.752 C 0.559 -0.88 0.47 -0.976 0.356 -1.036 C 0.244 -1.097 0.122 -1.125 -0.011 -1.119 L 0.033 -2.289 L -0.332 -2.101 L -0.356 -1.05 C -0.4 -1.035 -0.457 -1.01 -0.527 -0.973 L -0.775 -0.846 L -1.192 -1.658 L -1.531 -1.484 Z" fill="#236233"/>
</g>
</g>
<g>
<g transform="matrix(1 0 0 1 16.7377 5.6561)">
<path d="M 0 0 C -0.007 -0.022 -0.01 -0.045 -0.009 -0.067 C -0.009 -0.091 -0.004 -0.117 0.005 -0.148 C 0.014 -0.18 0.028 -0.216 0.048 -0.258 C 0.067 -0.3 0.093 -0.351 0.122 -0.412 C 0.24 -0.376 0.337 -0.338 0.411 -0.296 C 0.486 -0.254 0.533 -0.197 0.554 -0.126 C 0.574 -0.056 0.565 0.008 0.529 0.065 C 0.492 0.122 0.436 0.162 0.359 0.184 C 0.277 0.207 0.201 0.201 0.134 0.164 C 0.065 0.128 0.021 0.072 0 0 M -0.142 -1.681 C -0.062 -1.704 0.021 -1.711 0.104 -1.701 C 0.188 -1.692 0.271 -1.668 0.351 -1.628 L -0.065 -0.81 C -0.174 -0.849 -0.265 -0.896 -0.339 -0.95 C -0.414 -1.006 -0.464 -1.077 -0.489 -1.166 C -0.506 -1.224 -0.509 -1.279 -0.498 -1.333 C -0.488 -1.388 -0.466 -1.437 -0.434 -1.483 C -0.4 -1.528 -0.359 -1.568 -0.311 -1.603 C -0.261 -1.637 -0.205 -1.663 -0.142 -1.681 M 0.631 -2.178 L 0.483 -1.892 C 0.363 -1.948 0.24 -1.982 0.113 -1.994 C -0.014 -2.006 -0.14 -1.994 -0.264 -1.958 C -0.377 -1.926 -0.476 -1.879 -0.559 -1.816 C -0.643 -1.754 -0.709 -1.684 -0.759 -1.603 C -0.81 -1.523 -0.841 -1.437 -0.854 -1.343 C -0.867 -1.249 -0.861 -1.156 -0.834 -1.063 C -0.812 -0.988 -0.781 -0.922 -0.74 -0.864 C -0.699 -0.807 -0.651 -0.756 -0.596 -0.712 C -0.541 -0.668 -0.48 -0.63 -0.415 -0.599 C -0.35 -0.567 -0.283 -0.54 -0.215 -0.517 C -0.249 -0.446 -0.276 -0.384 -0.297 -0.328 C -0.317 -0.271 -0.332 -0.221 -0.341 -0.174 C -0.351 -0.127 -0.354 -0.082 -0.353 -0.041 C -0.352 0 -0.345 0.042 -0.333 0.084 C -0.311 0.164 -0.273 0.232 -0.223 0.291 C -0.172 0.35 -0.112 0.396 -0.044 0.428 C 0.024 0.461 0.101 0.48 0.183 0.485 C 0.266 0.49 0.351 0.48 0.437 0.455 C 0.516 0.433 0.588 0.4 0.653 0.357 C 0.719 0.315 0.772 0.265 0.815 0.208 C 0.857 0.15 0.886 0.085 0.899 0.014 C 0.913 -0.059 0.908 -0.135 0.886 -0.214 C 0.866 -0.28 0.838 -0.338 0.799 -0.387 C 0.76 -0.436 0.714 -0.479 0.661 -0.518 C 0.607 -0.556 0.548 -0.59 0.481 -0.62 C 0.415 -0.65 0.346 -0.678 0.272 -0.702 L 0.636 -1.408 C 0.694 -1.342 0.747 -1.267 0.794 -1.183 C 0.84 -1.1 0.878 -1.007 0.906 -0.905 L 1.2 -0.989 C 1.155 -1.139 1.098 -1.272 1.026 -1.39 C 0.955 -1.507 0.873 -1.606 0.781 -1.69 L 1.104 -2.313 Z" fill="#236233"/>
</g>
</g>
<g>
<g transform="matrix(1 0 0 1 20.4847 5.0164)">
<path d="M 0 0 L -0.301 0.024 L -0.365 -0.763 L -0.07 -0.786 C 0.081 -0.799 0.205 -0.777 0.303 -0.724 C 0.4 -0.669 0.455 -0.574 0.466 -0.439 C 0.478 -0.297 0.442 -0.191 0.361 -0.123 C 0.281 -0.054 0.16 -0.013 0 0 M -0.654 0.378 L 0.033 0.322 C 0.297 0.301 0.507 0.225 0.662 0.094 C 0.817 -0.038 0.886 -0.221 0.866 -0.454 C 0.854 -0.599 0.809 -0.721 0.728 -0.82 C 0.647 -0.92 0.545 -0.992 0.421 -1.037 L 0.91 -2.101 L 0.501 -2.067 L 0.074 -1.106 C 0.028 -1.109 -0.034 -1.107 -0.112 -1.102 L -0.391 -1.079 L -0.464 -1.989 L -0.844 -1.959 Z" fill="#236233"/>
</g>
</g>
<g>
<g transform="matrix(1 0 0 1 22.14 2.9256)">
<path d="M 0 0 L -0.11 2.342 L 1.227 2.405 L 1.295 2.104 L 0.284 2.057 L 0.317 1.357 L 1.084 1.394 L 1.156 1.094 L 0.331 1.055 L 0.366 0.321 L 1.465 0.373 L 1.537 0.072 Z" fill="#236233"/>
</g>
</g>
<g>
<g transform="matrix(1 0 0 1 24.2826 3.2147)">
<path d="M 0 0 L 0.033 0.32 C 0.115 0.294 0.212 0.274 0.322 0.26 C 0.432 0.245 0.533 0.246 0.625 0.261 C 0.772 0.286 0.881 0.33 0.95 0.394 C 1.02 0.458 1.047 0.536 1.031 0.629 C 1.021 0.688 0.992 0.738 0.941 0.78 C 0.891 0.822 0.829 0.856 0.757 0.884 C 0.685 0.912 0.581 0.947 0.445 0.989 C 0.217 1.063 0.041 1.146 -0.083 1.235 C -0.207 1.326 -0.282 1.451 -0.31 1.612 C -0.328 1.728 -0.315 1.837 -0.269 1.938 C -0.223 2.041 -0.146 2.128 -0.04 2.2 C 0.066 2.272 0.197 2.322 0.354 2.348 C 0.459 2.365 0.567 2.368 0.682 2.355 C 0.795 2.343 0.902 2.32 1.004 2.288 L 0.927 1.965 C 0.835 1.991 0.751 2.01 0.675 2.021 C 0.599 2.031 0.515 2.028 0.423 2.014 C 0.307 1.994 0.216 1.956 0.149 1.898 C 0.083 1.841 0.058 1.768 0.072 1.68 C 0.083 1.615 0.111 1.562 0.159 1.521 C 0.206 1.479 0.265 1.443 0.334 1.417 C 0.404 1.39 0.514 1.353 0.661 1.306 C 0.816 1.254 0.942 1.206 1.038 1.16 C 1.134 1.114 1.217 1.054 1.285 0.978 C 1.354 0.901 1.398 0.807 1.417 0.693 C 1.437 0.571 1.423 0.457 1.374 0.351 C 1.325 0.245 1.242 0.154 1.125 0.08 C 1.007 0.006 0.86 -0.046 0.684 -0.075 C 0.588 -0.091 0.466 -0.091 0.319 -0.074 C 0.172 -0.059 0.065 -0.033 0 0" fill="#236233"/>
</g>
</g>
<g>
<g transform="matrix(1 0 0 1 27.5668 5.9168)">
<path d="M 0 0 L -0.76 -0.221 L -0.192 -2.178 L -0.564 -2.285 L -1.132 -0.328 L -1.83 -0.53 L -1.915 -0.236 L -0.141 0.278 Z" fill="#236233"/>
</g>
</g>
<g>
<g transform="matrix(1 0 0 1 28.8177 6.2)">
<path d="M 0 0 L 0.059 -0.972 L 0.685 -0.698 Z M -0.05 0.554 L 1.696 -1.215 L 1.373 -1.416 L 0.916 -0.939 L 0.085 -1.303 L 0.119 -1.932 L -0.227 -2.083 L -0.357 0.419 Z" fill="#236233"/>
</g>
</g>
<g>
<g transform="matrix(1 0 0 1 30.2572 7.5067)">
<path d="M 0 0 L 0.775 -1.247 C 0.876 -1.409 0.995 -1.508 1.133 -1.544 C 1.27 -1.581 1.408 -1.556 1.549 -1.468 C 1.689 -1.381 1.773 -1.267 1.801 -1.127 C 1.828 -0.986 1.792 -0.836 1.692 -0.677 L 0.917 0.571 L 1.243 0.773 L 2.035 -0.5 C 2.123 -0.643 2.171 -0.791 2.178 -0.945 C 2.185 -1.1 2.148 -1.245 2.07 -1.384 C 1.992 -1.521 1.874 -1.64 1.717 -1.737 C 1.559 -1.835 1.4 -1.889 1.242 -1.898 C 1.084 -1.907 0.937 -1.875 0.802 -1.801 C 0.666 -1.727 0.555 -1.618 0.466 -1.476 L -0.326 -0.202 Z" fill="#236233"/>
</g>
</g>
<g>
<g transform="matrix(1 0 0 1 32.7621 8.87)">
<path d="M 0 0 L -0.232 -0.194 L 0.275 -0.799 L 0.501 -0.609 C 0.618 -0.512 0.691 -0.41 0.723 -0.303 C 0.754 -0.195 0.727 -0.09 0.639 0.015 C 0.548 0.123 0.449 0.174 0.343 0.166 C 0.237 0.159 0.123 0.104 0 0 M -0.731 -0.19 L -0.203 0.253 C 0 0.423 0.202 0.516 0.405 0.531 C 0.608 0.547 0.784 0.465 0.936 0.285 C 1.028 0.174 1.081 0.055 1.094 -0.073 C 1.105 -0.2 1.084 -0.324 1.027 -0.443 L 2.122 -0.856 L 1.808 -1.121 L 0.829 -0.735 C 0.799 -0.77 0.753 -0.812 0.692 -0.863 L 0.479 -1.042 L 1.065 -1.742 L 0.774 -1.987 Z" fill="#236233"/>
</g>
</g>
<g>
<g transform="matrix(1 0 0 1 34.598 10.3446)">
<path d="M 0 0 L 0.449 -0.864 L 0.909 -0.359 Z M -0.271 0.485 L 2.044 -0.419 L 1.831 -0.734 L 1.219 -0.485 L 0.608 -1.155 L 0.896 -1.716 L 0.642 -1.994 L -0.497 0.237 Z" fill="#236233"/>
</g>
</g>
<g>
<g transform="matrix(1 0 0 1 37.1283 10.5204)">
<path d="M 0 0 L -1.943 1.312 L -1.741 1.61 L 0.262 1.626 L -1.106 2.55 L -0.892 2.868 L 1.051 1.557 L 0.848 1.256 L -1.164 1.245 L 0.213 0.315 Z" fill="#236233"/>
</g>
</g>
<g>
<g transform="matrix(1 0 0 1 37.5687 15.3416)">
<path d="M 0 0 L -0.349 -0.711 L 1.482 -1.606 L 1.312 -1.954 L -0.519 -1.059 L -0.838 -1.711 L -1.113 -1.576 L -0.302 0.083 Z" fill="#236233"/>
</g>
</g>
<g>
<g transform="matrix(1 0 0 1 39.6644 15.1336)">
<path d="M 0 0 L -2.217 0.765 L -1.78 2.029 L -1.476 1.982 L -1.806 1.025 L -1.145 0.797 L -0.894 1.522 L -0.588 1.479 L -0.857 0.698 L -0.163 0.459 L 0.195 1.499 L 0.501 1.454 Z" fill="#236233"/>
</g>
</g>
<g>
<g transform="matrix(1 0 0 1 27.057 14.8534)">
<path d="M 0 0 C -1.68 -0.76 -2.441 -2.484 -2.941 -2.813 C -4.571 -3.884 -5.753 -1.137 -6.288 -0.493 C -6.495 -0.244 -6.979 0.435 -7.758 0.33 C -8.32 0.255 -9.014 -0.834 -9.106 -0.962 C -9.131 -0.994 -9.175 -1.07 -9.23 -1.171 L -9.225 -1.169 C -9.521 -1.705 -10.204 -3.079 -10.39 -3.576 C -10.514 -3.908 -10.993 -4.756 -11.223 -5.261 C -8.546 -6.498 -5.435 -6.909 -2.295 -6.225 C 1.444 -5.409 4.504 -3.197 6.438 -0.285 C 4.819 0.548 1.894 0.856 0 0" fill="#236233"/>
</g>
</g>
<g>
<g transform="matrix(1 0 0 1 9.4798 23.9286)">
<path d="M 0 0 C 0.319 0.415 1.524 1.014 1.802 1.299 C 2.012 1.515 4.674 2.837 4.723 2.904 C 4.734 2.92 6.582 4.172 6.672 4.212 C 6.728 4.236 7.012 4.497 7.064 5.128 C 7.144 6.061 7.123 6.585 7.494 7.425 C 7.865 8.265 8.351 9.932 8.73 10.207 C 9.11 10.482 9.231 10.515 9.652 10.311 C 10.072 10.106 10.183 9.996 10.719 9.538 C 11.256 9.079 11.827 8.249 11.9 8.062 C 11.974 7.874 12.021 7.792 12.278 8.027 C 12.809 8.511 13.2 9.396 13.72 9.443 C 14.324 9.497 14.552 9.142 14.816 8.687 C 15.076 8.24 15.695 7.36 16.009 6.897 C 16.298 6.47 16.631 5.815 17.33 5.656 C 18.048 5.492 18.754 5.651 20.454 5.714 C 22.013 5.772 22.917 5.453 24.027 5.423 C 20.898 10.227 15.029 12.769 9.23 11.321 C 3.425 9.872 -0.564 4.861 -1.062 -0.857 C -0.61 -0.54 -0.148 -0.193 0 0" fill="#236233"/>
</g>
</g>
</g>
</g>
</svg>

